<svg xmlns="http://www.w3.org/2000/svg" xmlns:xlink="http://www.w3.org/1999/xlink" width="500" zoomAndPan="magnify" viewBox="0 0 375 374.999991" height="500" preserveAspectRatio="xMidYMid meet" version="1.0"><rect x="-37.5" width="450" fill="#fdfdfd" y="-37.499999" height="449.999989" fill-opacity="1"/><path fill="#fc1501" d="M 163.050781 60.183594 C 163.980469 60.601562 164.566406 61.0625 165.28125 61.777344 L 166.238281 62.097656 L 166.238281 62.734375 L 168.148438 63.371094 L 168.148438 64.007812 L 168.945312 64.1875 C 170.226562 64.714844 171 65.40625 171.996094 66.347656 C 172.605469 66.871094 173.167969 67.175781 173.886719 67.515625 C 174.445312 67.992188 174.445312 67.992188 174.84375 68.46875 L 174.84375 69.105469 L 175.359375 69.347656 C 177.089844 70.257812 178.285156 71.261719 179.527344 72.742188 C 180.507812 73.84375 181.558594 74.867188 182.613281 75.898438 C 184.304688 77.566406 185.867188 79.253906 187.328125 81.128906 C 187.898438 81.863281 187.898438 81.863281 188.5625 82.492188 C 189.21875 83.160156 189.6875 83.835938 190.183594 84.621094 C 190.476562 85.089844 190.78125 85.546875 191.097656 85.996094 L 191.738281 86.316406 C 192.058594 86.828125 192.058594 86.828125 192.414062 87.507812 C 193.078125 88.742188 193.785156 89.929688 194.527344 91.113281 C 195.519531 92.722656 196.484375 94.347656 197.414062 95.992188 C 197.535156 96.203125 197.652344 96.410156 197.773438 96.625 C 199.613281 99.898438 199.613281 99.898438 199.800781 101.429688 L 199.707031 103.203125 L 200.34375 103.523438 C 201.1875 105.246094 201.765625 107.089844 202.253906 108.9375 L 202.59375 109.996094 C 202.90625 111.21875 203.015625 112.375 203.121094 113.628906 C 203.183594 114.390625 203.183594 114.390625 203.550781 115.191406 C 204 116.328125 203.910156 117.28125 203.847656 118.5 L 203.53125 119.453125 L 204.167969 119.453125 L 204.167969 132.839844 L 203.53125 132.839844 L 203.847656 133.792969 C 204.550781 142.238281 200.6875 151.378906 197.273438 158.886719 L 196.847656 159.832031 C 196.019531 161.609375 195.101562 163.296875 194.074219 164.96875 C 193.589844 165.757812 193.148438 166.558594 192.710938 167.371094 C 191.15625 170.242188 189.554688 172.996094 187.597656 175.613281 C 186.957031 176.496094 186.355469 177.394531 185.761719 178.308594 C 184.605469 180.054688 183.367188 181.722656 182.105469 183.394531 C 179.316406 187.078125 176.605469 190.824219 174.007812 194.648438 C 173.675781 195.136719 173.34375 195.621094 173.011719 196.109375 C 170.007812 200.507812 167.175781 204.949219 164.644531 209.632812 L 164.269531 210.320312 C 159.035156 220.042969 157.042969 230.28125 157.339844 241.234375 C 157.730469 247.257812 159.757812 253.367188 162.429688 258.738281 C 162.734375 259.355469 163.03125 259.976562 163.328125 260.597656 C 166.933594 268.101562 171.976562 274.347656 177.574219 280.457031 C 177.730469 280.632812 177.890625 280.804688 178.054688 280.984375 C 178.757812 281.746094 179.394531 282.347656 180.261719 282.925781 L 180.261719 283.5625 L 180.824219 283.808594 C 181.613281 284.242188 182.113281 284.722656 182.730469 285.375 C 183.972656 286.652344 185.28125 287.828125 186.636719 288.980469 C 186.441406 287.726562 185.824219 286.945312 185.082031 285.933594 C 181.726562 281.203125 179.222656 276.1875 177.074219 270.816406 L 176.539062 269.519531 C 174.371094 264.132812 173.0625 258.398438 172.292969 252.652344 L 172.167969 251.71875 C 171.0625 241.429688 172.695312 231.28125 176.816406 221.824219 C 180.445312 213.71875 185.257812 206.488281 190.613281 199.441406 C 191.269531 198.578125 191.917969 197.707031 192.566406 196.839844 C 193.871094 195.09375 195.1875 193.355469 196.519531 191.628906 C 206.996094 178.050781 217.253906 163.59375 220.304688 146.367188 C 220.449219 145.042969 220.457031 143.746094 220.445312 142.417969 L 220.441406 141.664062 C 220.433594 141.058594 220.429688 140.453125 220.425781 139.847656 L 221.0625 139.847656 L 221.0625 134.433594 L 220.425781 134.433594 L 220.742188 131.882812 L 220.105469 131.882812 L 220.425781 129.332031 L 219.785156 129.332031 L 220.105469 127.738281 L 219.46875 127.738281 L 219.785156 126.464844 L 219.148438 126.464844 L 218.832031 122.960938 C 219.785156 123.277344 219.785156 123.277344 220.445312 123.855469 C 221.019531 124.503906 221.316406 125.0625 221.699219 125.828125 L 222.65625 126.464844 L 222.972656 127.421875 L 223.613281 127.738281 L 223.613281 128.695312 L 224.566406 129.015625 L 224.566406 129.96875 L 225.207031 129.96875 L 225.207031 130.925781 L 225.84375 130.925781 L 225.84375 131.882812 L 226.480469 131.882812 C 227 132.621094 227 132.621094 227.4375 133.476562 L 227.4375 134.433594 L 228.074219 134.433594 C 228.539062 135.273438 228.710938 135.671875 228.710938 136.664062 L 229.347656 136.664062 L 229.347656 137.9375 L 229.988281 137.9375 L 229.988281 139.210938 L 230.625 139.210938 C 231.597656 141.054688 232.371094 142.925781 233.101562 144.878906 C 233.433594 145.746094 233.785156 146.601562 234.148438 147.457031 C 236.953125 154.550781 237.710938 162.6875 237.695312 170.261719 L 237.695312 170.945312 C 237.667969 180.257812 236.257812 190.175781 231.886719 198.527344 C 231.585938 199.113281 231.304688 199.703125 231.035156 200.300781 C 230.066406 202.433594 229.066406 204.480469 227.808594 206.464844 C 227.390625 207.113281 227.390625 207.113281 227.117188 208.042969 L 226.480469 208.359375 L 226.160156 209.632812 L 225.523438 209.953125 C 225.316406 210.597656 225.316406 210.597656 225.207031 211.226562 L 224.566406 211.226562 L 224.566406 212.183594 L 223.929688 212.183594 L 223.929688 213.140625 L 223.292969 213.140625 L 223.292969 214.097656 C 222.863281 214.566406 222.863281 214.566406 222.335938 215.050781 C 222.0625 215.414062 221.796875 215.777344 221.542969 216.152344 L 221.085938 216.800781 L 220.601562 217.5 C 219.3125 219.351562 218 221.179688 216.640625 222.976562 C 213.714844 226.851562 210.839844 230.761719 207.992188 234.6875 L 207.496094 235.375 C 204.695312 239.25 202.453125 243.269531 200.34375 247.554688 L 199.707031 247.554688 L 199.605469 248.351562 C 199.351562 249.65625 198.921875 250.78125 198.429688 252.015625 L 197.792969 252.015625 L 197.699219 252.554688 C 197.398438 254.167969 197.007812 255.707031 196.519531 257.273438 C 195.738281 259.964844 195.445312 262.617188 195.242188 265.398438 L 195.175781 266.269531 C 194.371094 277.5625 196.578125 288.078125 199.707031 298.859375 C 199.835938 299.320312 199.96875 299.777344 200.101562 300.238281 L 200.34375 301.089844 C 198.3125 300.910156 196.441406 300.5625 194.484375 299.992188 L 193.632812 299.746094 C 191.140625 299.003906 188.699219 298.140625 186.257812 297.246094 L 185.175781 296.847656 C 183.277344 296.136719 181.460938 295.351562 179.660156 294.421875 C 178.886719 294.027344 178.105469 293.703125 177.292969 293.402344 C 176.1875 292.972656 175.21875 292.472656 174.207031 291.847656 C 173.507812 291.625 173.507812 291.625 172.929688 291.527344 L 172.929688 290.890625 L 172.113281 290.804688 C 170.875 290.542969 169.894531 290.046875 168.808594 289.425781 L 168.195312 289.085938 C 167.554688 288.726562 166.914062 288.367188 166.277344 288.003906 L 164.96875 287.273438 C 163.902344 286.675781 162.835938 286.078125 161.773438 285.476562 L 161.773438 284.835938 L 160.179688 284.519531 L 160.179688 283.882812 L 159.222656 283.882812 L 159.222656 283.246094 L 158.691406 283.144531 C 157.792969 282.878906 157.082031 282.46875 156.277344 281.988281 L 155.414062 281.484375 L 154.761719 281.011719 L 154.761719 280.375 L 153.804688 280.375 L 153.804688 279.738281 L 152.851562 279.738281 L 152.851562 279.101562 L 151.574219 278.78125 L 151.574219 278.144531 L 150.617188 278.144531 L 150.617188 277.507812 L 149.9375 277.269531 C 148.90625 276.820312 148.082031 276.257812 147.171875 275.597656 L 146.230469 274.917969 L 145.519531 274.320312 L 145.519531 273.683594 L 143.925781 273.046875 L 143.925781 272.410156 L 143.207031 272.171875 C 142.230469 271.726562 141.792969 271.277344 141.054688 270.496094 C 140.433594 269.949219 139.804688 269.40625 139.175781 268.867188 C 138.390625 268.164062 137.65625 267.421875 136.914062 266.675781 C 136.40625 266.175781 135.898438 265.675781 135.394531 265.179688 L 133.644531 263.449219 L 132.773438 262.589844 C 130.820312 260.65625 129.050781 258.636719 127.351562 256.476562 L 126.878906 255.890625 C 119.804688 247.042969 114.574219 236.78125 112.714844 225.515625 C 112.636719 224.996094 112.5625 224.476562 112.488281 223.953125 L 112.371094 223.175781 C 111.351562 216.195312 111.136719 208.640625 112.367188 201.667969 L 112.515625 200.84375 C 113.832031 193.667969 116.171875 186.863281 119.382812 180.316406 L 119.773438 179.515625 C 123.757812 171.449219 128.722656 163.890625 134.402344 156.917969 C 135.277344 155.835938 136.128906 154.738281 136.972656 153.628906 C 138.554688 151.558594 140.199219 149.542969 141.867188 147.542969 C 144.660156 144.191406 147.363281 140.789062 149.980469 137.300781 L 150.523438 136.582031 C 155.960938 129.367188 160.996094 121.914062 164.703125 113.652344 C 164.925781 113.164062 165.15625 112.679688 165.394531 112.199219 C 169.765625 103.203125 171.273438 93.132812 170.644531 83.214844 C 170.453125 80.769531 170.261719 78.4375 169.425781 76.117188 C 169.316406 75.660156 169.214844 75.203125 169.125 74.742188 C 168.855469 73.46875 168.480469 72.261719 168.046875 71.03125 C 167.761719 70.171875 167.511719 69.382812 167.511719 68.46875 L 166.875 68.152344 L 166.238281 65.921875 L 165.597656 65.601562 C 165.265625 64.980469 164.945312 64.347656 164.644531 63.710938 C 164 62.316406 164 62.316406 163.050781 61.140625 Z M 163.050781 60.183594 " fill-opacity="1" fill-rule="nonzero"/><path fill="#fd4502" d="M 163.050781 60.183594 C 163.980469 60.601562 164.566406 61.0625 165.28125 61.777344 L 166.238281 62.097656 L 166.238281 62.734375 L 168.148438 63.371094 L 168.148438 64.007812 L 168.945312 64.1875 C 170.226562 64.714844 171 65.40625 171.996094 66.347656 C 172.605469 66.871094 173.167969 67.175781 173.886719 67.515625 C 174.445312 67.992188 174.445312 67.992188 174.84375 68.46875 L 174.84375 69.105469 L 175.359375 69.347656 C 177.089844 70.257812 178.285156 71.261719 179.527344 72.742188 C 180.507812 73.84375 181.558594 74.867188 182.613281 75.898438 C 184.304688 77.566406 185.867188 79.253906 187.328125 81.128906 C 187.898438 81.863281 187.898438 81.863281 188.5625 82.492188 C 189.21875 83.160156 189.6875 83.835938 190.183594 84.621094 C 190.476562 85.089844 190.78125 85.546875 191.097656 85.996094 L 191.738281 86.316406 C 192.058594 86.828125 192.058594 86.828125 192.414062 87.507812 C 193.078125 88.742188 193.785156 89.929688 194.527344 91.113281 C 195.519531 92.722656 196.484375 94.347656 197.414062 95.992188 C 197.535156 96.203125 197.652344 96.410156 197.773438 96.625 C 199.613281 99.898438 199.613281 99.898438 199.800781 101.429688 L 199.707031 103.203125 L 200.34375 103.523438 C 201.1875 105.246094 201.765625 107.089844 202.253906 108.9375 L 202.59375 109.996094 C 202.90625 111.21875 203.015625 112.375 203.121094 113.628906 C 203.183594 114.390625 203.183594 114.390625 203.550781 115.191406 C 204 116.328125 203.910156 117.28125 203.847656 118.5 L 203.53125 119.453125 L 204.167969 119.453125 L 204.167969 132.839844 L 203.53125 132.839844 L 203.847656 133.792969 C 204.550781 142.238281 200.6875 151.378906 197.273438 158.886719 L 196.847656 159.832031 C 196.019531 161.609375 195.101562 163.296875 194.074219 164.96875 C 193.589844 165.757812 193.148438 166.558594 192.710938 167.371094 C 191.15625 170.242188 189.554688 172.996094 187.597656 175.613281 C 186.957031 176.496094 186.355469 177.394531 185.761719 178.308594 C 184.605469 180.054688 183.367188 181.722656 182.105469 183.394531 C 179.320312 187.078125 176.605469 190.824219 174.011719 194.644531 C 173.675781 195.136719 173.339844 195.632812 173 196.125 C 170.214844 200.207031 167.578125 204.300781 165.28125 208.679688 L 164.324219 208.679688 L 163.6875 209.316406 C 163.6875 208.359375 163.6875 208.359375 164.183594 207.382812 L 164.644531 206.449219 L 164.324219 205.8125 C 163.808594 205.746094 163.296875 205.679688 162.777344 205.621094 C 160.65625 205.222656 158.625 204.109375 156.675781 203.207031 C 156.039062 202.921875 156.039062 202.921875 155.335938 202.789062 L 154.761719 202.625 L 154.445312 201.988281 C 153.800781 201.625 153.800781 201.625 153.167969 201.347656 L 152.53125 201.988281 L 151.753906 201.527344 C 150.753906 201.089844 150.335938 200.980469 149.304688 200.929688 C 147.3125 200.773438 145.613281 199.820312 143.925781 198.800781 C 143.335938 198.300781 143.335938 198.300781 142.96875 197.84375 L 142.96875 197.207031 L 142.429688 197.191406 C 140.679688 197.085938 139.507812 196.675781 138.039062 195.726562 L 137.550781 195.296875 L 137.230469 194.339844 C 136.085938 193.660156 135.039062 193.257812 133.726562 193.066406 L 133.40625 191.152344 L 132.410156 191.292969 L 131.175781 191.152344 C 130.589844 190.628906 130.152344 190.078125 129.695312 189.441406 L 129.261719 188.921875 L 128.304688 188.601562 L 127.988281 187.648438 C 127.457031 187.222656 126.925781 186.796875 126.394531 186.371094 L 126.394531 185.734375 L 125.476562 185.675781 L 124.480469 185.417969 C 124.257812 184.890625 124.042969 184.359375 123.84375 183.824219 C 123.03125 183.539062 123.03125 183.539062 122.25 183.503906 L 122.570312 181.59375 L 121.929688 181.59375 L 121.511719 180.65625 L 120.976562 179.679688 L 120.019531 179.363281 C 123.65625 171.699219 128.25 164.574219 133.566406 157.972656 C 134.296875 157.054688 135.015625 156.128906 135.730469 155.199219 C 137.734375 152.613281 139.769531 150.0625 141.863281 147.550781 C 144.65625 144.195312 147.363281 140.789062 149.980469 137.300781 L 150.523438 136.582031 C 155.960938 129.367188 160.996094 121.914062 164.703125 113.652344 C 164.925781 113.164062 165.15625 112.679688 165.394531 112.199219 C 169.765625 103.203125 171.273438 93.132812 170.644531 83.214844 C 170.453125 80.769531 170.261719 78.4375 169.425781 76.117188 C 169.316406 75.660156 169.214844 75.203125 169.125 74.742188 C 168.855469 73.46875 168.480469 72.261719 168.046875 71.03125 C 167.761719 70.171875 167.511719 69.382812 167.511719 68.46875 L 166.875 68.152344 L 166.238281 65.921875 L 165.597656 65.601562 C 165.265625 64.980469 164.945312 64.347656 164.644531 63.710938 C 164 62.316406 164 62.316406 163.050781 61.140625 Z M 163.050781 60.183594 " fill-opacity="1" fill-rule="nonzero"/><path fill="#fc1401" d="M 218.832031 122.960938 C 219.785156 123.277344 219.785156 123.277344 220.445312 123.855469 C 221.019531 124.503906 221.316406 125.0625 221.699219 125.828125 L 222.65625 126.464844 L 222.972656 127.421875 L 223.613281 127.738281 L 223.613281 128.695312 L 224.566406 129.015625 L 224.566406 129.96875 L 225.207031 129.96875 L 225.207031 130.925781 L 225.84375 130.925781 L 225.84375 131.882812 L 226.480469 131.882812 C 227 132.621094 227 132.621094 227.4375 133.476562 L 227.4375 134.433594 L 228.074219 134.433594 C 228.539062 135.273438 228.710938 135.671875 228.710938 136.664062 L 229.347656 136.664062 L 229.347656 137.9375 L 229.988281 137.9375 L 229.988281 139.210938 L 230.625 139.210938 C 231.597656 141.054688 232.371094 142.925781 233.101562 144.878906 C 233.433594 145.746094 233.785156 146.601562 234.148438 147.457031 C 236.953125 154.550781 237.710938 162.6875 237.695312 170.261719 L 237.695312 170.945312 C 237.667969 180.257812 236.257812 190.175781 231.886719 198.527344 C 231.585938 199.113281 231.304688 199.703125 231.035156 200.300781 C 230.066406 202.433594 229.066406 204.480469 227.808594 206.464844 C 227.390625 207.113281 227.390625 207.113281 227.117188 208.042969 L 226.480469 208.359375 L 226.160156 209.632812 L 225.523438 209.953125 C 225.316406 210.597656 225.316406 210.597656 225.207031 211.226562 L 224.566406 211.226562 L 224.566406 212.183594 L 223.929688 212.183594 L 223.929688 213.140625 L 223.292969 213.140625 L 223.292969 214.097656 C 222.863281 214.566406 222.863281 214.566406 222.335938 215.050781 C 222.0625 215.414062 221.796875 215.777344 221.542969 216.152344 L 221.085938 216.800781 L 220.601562 217.5 C 219.3125 219.351562 218 221.179688 216.640625 222.976562 C 213.714844 226.851562 210.839844 230.761719 207.992188 234.6875 L 207.496094 235.375 C 204.695312 239.25 202.453125 243.269531 200.34375 247.554688 L 199.707031 247.554688 L 199.605469 248.351562 C 199.351562 249.65625 198.921875 250.78125 198.429688 252.015625 L 197.792969 252.015625 L 197.699219 252.554688 C 197.398438 254.167969 197.007812 255.707031 196.519531 257.273438 C 195.371094 261.207031 195.207031 265.324219 195.003906 269.398438 C 194.929688 270.421875 194.792969 271.402344 194.605469 272.410156 L 193.96875 272.410156 L 193.648438 273.367188 C 193.640625 272.023438 193.636719 270.679688 193.632812 269.339844 C 193.628906 268.882812 193.628906 268.425781 193.625 267.972656 C 193.609375 265.519531 193.628906 263.105469 193.941406 260.667969 C 194.019531 259.90625 194.019531 259.90625 193.550781 258.964844 C 192.753906 258.335938 192.753906 258.335938 191.898438 258.296875 C 191.097656 258.289062 190.300781 258.320312 189.503906 258.390625 L 189.824219 257.113281 L 189.226562 257.59375 L 188.550781 258.070312 L 187.910156 258.070312 L 187.59375 257.433594 C 186.988281 257.285156 186.988281 257.285156 186.296875 257.234375 L 185.042969 257.113281 L 185.042969 256.476562 L 183.449219 256.160156 L 183.449219 256.796875 L 182.78125 256.726562 C 180.125 256.472656 177.507812 256.445312 174.84375 256.476562 L 174.523438 257.433594 L 173.886719 257.433594 C 174.207031 254.703125 174.207031 254.703125 174.523438 253.609375 L 173.886719 253.609375 L 173.886719 255.519531 L 173.25 255.203125 C 173.125 254.378906 173.085938 253.5625 173.039062 252.734375 L 172.929688 252.015625 L 172.292969 251.695312 C 170.882812 242.859375 172.339844 233.34375 175.480469 225.027344 C 179.175781 215.667969 184.554688 207.414062 190.613281 199.441406 C 191.269531 198.578125 191.917969 197.707031 192.566406 196.839844 C 193.871094 195.09375 195.1875 193.355469 196.519531 191.628906 C 206.996094 178.050781 217.253906 163.59375 220.304688 146.367188 C 220.449219 145.042969 220.457031 143.746094 220.445312 142.417969 L 220.441406 141.664062 C 220.433594 141.058594 220.429688 140.453125 220.425781 139.847656 L 221.0625 139.847656 L 221.0625 134.433594 L 220.425781 134.433594 L 220.742188 131.882812 L 220.105469 131.882812 L 220.425781 129.332031 L 219.785156 129.332031 L 220.105469 127.738281 L 219.46875 127.738281 L 219.785156 126.464844 L 219.148438 126.464844 Z M 218.832031 122.960938 " fill-opacity="1" fill-rule="nonzero"/><path fill="#fc1501" d="M 248.472656 167.570312 C 249.070312 167.8125 249.070312 167.8125 249.75 168.210938 C 250.066406 168.765625 250.066406 168.765625 250.386719 169.484375 L 251.023438 170.441406 C 251.519531 171.1875 251.910156 171.871094 252.300781 172.671875 L 252.6875 173.4375 L 253.097656 174.242188 L 253.503906 175.050781 C 253.882812 175.839844 254.207031 176.636719 254.53125 177.449219 C 254.738281 177.863281 254.949219 178.277344 255.167969 178.683594 C 255.753906 179.835938 256.097656 180.984375 256.441406 182.230469 C 256.757812 182.871094 257.074219 183.507812 257.398438 184.140625 C 257.625 184.777344 257.835938 185.414062 258.035156 186.054688 L 258.253906 186.675781 C 259.277344 189.613281 259.964844 192.519531 260.269531 195.613281 L 260.585938 195.933594 C 260.710938 196.796875 260.8125 197.65625 260.90625 198.519531 L 260.988281 199.304688 C 262.09375 209.894531 261.296875 220.050781 257.398438 230.027344 L 256.761719 230.027344 L 256.683594 230.984375 C 256.472656 232.425781 255.867188 233.5625 255.167969 234.828125 L 254.785156 235.535156 C 253.90625 237.132812 252.976562 238.703125 252 240.246094 L 251.636719 240.828125 C 251.34375 241.277344 251.027344 241.707031 250.707031 242.136719 L 250.066406 242.136719 L 249.96875 242.691406 C 249.714844 243.53125 249.339844 244.070312 248.8125 244.765625 L 248.304688 245.449219 L 247.835938 245.960938 L 247.199219 245.960938 L 246.941406 246.738281 L 246.5625 247.554688 L 245.605469 247.875 L 245.328125 248.589844 C 244.875 249.695312 244.234375 250.230469 243.375 251.058594 L 239.867188 254.566406 L 239.101562 255.335938 C 236.472656 257.945312 233.757812 260.46875 230.863281 262.78125 C 229.851562 263.597656 228.863281 264.4375 227.875 265.28125 C 223.394531 269.082031 223.394531 269.082031 222.019531 269.542969 L 222.019531 270.179688 C 221.101562 271.015625 221.101562 271.015625 220.105469 271.773438 L 219.46875 271.773438 L 219.214844 272.351562 C 218.804688 273.09375 218.425781 273.46875 217.773438 274.003906 C 216.558594 275.035156 215.363281 276.089844 214.1875 277.171875 L 213.644531 277.667969 C 212.441406 278.785156 211.339844 279.945312 210.308594 281.226562 L 209.90625 281.652344 L 209.269531 281.652344 L 209 282.21875 C 208.65625 282.875 208.285156 283.445312 207.847656 284.039062 L 207.390625 284.660156 L 206.917969 285.296875 L 206.453125 285.929688 C 205.609375 287.070312 204.742188 288.195312 203.847656 289.296875 L 203.53125 288.980469 C 202.191406 282.195312 202.402344 274.941406 204.167969 268.265625 L 204.347656 267.574219 C 207.347656 256.433594 214.429688 246.984375 221.820312 238.34375 C 222.605469 237.421875 223.367188 236.484375 224.128906 235.546875 C 225.015625 234.453125 225.941406 233.390625 226.898438 232.359375 C 228.675781 230.410156 230.210938 228.289062 231.769531 226.167969 C 232.378906 225.347656 233.007812 224.542969 233.632812 223.734375 C 237.3125 218.804688 240.355469 213.5625 243.054688 208.042969 L 243.402344 207.335938 C 246.003906 201.9375 247.714844 196.082031 248.792969 190.195312 L 249.011719 189.03125 C 249.972656 182.828125 249.6875 176.316406 248.792969 170.121094 C 248.683594 169.273438 248.578125 168.421875 248.472656 167.570312 " fill-opacity="1" fill-rule="nonzero"/><path fill="#e70001" d="M 114.28125 230.664062 C 115.101562 231.484375 115.222656 232.097656 115.554688 233.214844 L 115.785156 234.109375 L 116.035156 235.066406 L 116.261719 235.988281 L 116.511719 236.71875 L 117.148438 237.039062 L 116.832031 237.675781 L 117.46875 237.675781 L 117.789062 238.949219 L 118.742188 237.675781 L 118.742188 238.3125 L 119.550781 238.269531 C 122.230469 238.1875 124.390625 238.519531 126.941406 239.277344 C 127.808594 239.535156 128.691406 239.746094 129.582031 239.90625 L 129.261719 238.949219 L 129.898438 238.949219 C 130.371094 239.425781 130.371094 239.425781 130.875 240.046875 L 131.386719 240.664062 L 131.8125 241.179688 L 132.132812 241.5 L 133.40625 241.179688 L 133.726562 241.5 C 133.738281 242.03125 133.738281 242.5625 133.726562 243.09375 L 134.742188 243.191406 C 135.917969 243.40625 136.601562 243.652344 137.550781 244.367188 L 137.550781 245.003906 L 141.695312 245.003906 L 141.695312 245.644531 L 142.191406 245.742188 C 143.242188 246.039062 144.199219 246.476562 145.199219 246.917969 L 145.199219 247.875 L 149.023438 247.875 L 149.023438 248.828125 C 149.347656 248.800781 149.671875 248.769531 150.003906 248.738281 L 151.296875 248.628906 L 151.9375 248.566406 C 153.371094 248.457031 154.375 248.679688 155.71875 249.148438 C 156.628906 248.75 156.628906 248.75 157.3125 248.191406 L 156.992188 249.785156 L 157.949219 249.464844 L 157.730469 250.183594 L 157.628906 251.058594 C 157.941406 251.492188 158.261719 251.914062 158.585938 252.335938 C 158.808594 252.816406 159.015625 253.300781 159.203125 253.796875 L 159.53125 254.632812 L 159.863281 255.5 C 160.796875 257.988281 160.796875 257.988281 162.09375 260.300781 L 161.136719 257.433594 L 161.773438 257.433594 L 162.230469 258.371094 C 165.875 265.78125 170.066406 272.183594 175.6875 278.28125 C 176.355469 279.015625 177.007812 279.757812 177.652344 280.515625 C 178.449219 281.4375 179.304688 282.171875 180.261719 282.925781 L 180.261719 283.5625 L 180.824219 283.808594 C 181.613281 284.242188 182.113281 284.722656 182.730469 285.375 C 183.972656 286.652344 185.28125 287.828125 186.636719 288.980469 C 186.441406 287.726562 185.824219 286.945312 185.082031 285.933594 C 181.726562 281.203125 179.222656 276.1875 177.074219 270.816406 L 176.539062 269.519531 C 174.234375 263.796875 173.011719 257.804688 172.292969 251.695312 L 172.929688 251.378906 C 173.320312 252.152344 173.351562 252.785156 173.429688 253.648438 L 173.507812 254.527344 L 173.566406 255.203125 L 173.886719 253.609375 L 174.523438 253.609375 C 174.207031 256.339844 174.207031 256.339844 173.886719 257.433594 L 174.523438 257.433594 L 174.84375 256.160156 C 182.003906 256.074219 182.003906 256.074219 183.449219 256.796875 L 183.449219 256.160156 L 185.363281 256.160156 L 185.042969 257.113281 L 187.59375 257.113281 L 187.910156 258.070312 L 188.507812 257.59375 L 189.1875 257.113281 L 189.824219 257.113281 L 189.824219 258.070312 L 190.394531 258.027344 L 191.160156 257.992188 L 191.910156 257.945312 C 192.691406 258.070312 192.691406 258.070312 193.589844 258.578125 L 194.285156 259.34375 C 194.371094 260.304688 194.371094 260.304688 194.226562 261.476562 C 193.976562 263.90625 193.933594 266.304688 193.949219 268.746094 L 193.953125 269.835938 C 193.957031 270.695312 193.960938 271.550781 193.96875 272.410156 L 194.605469 272.410156 C 194.996094 273.1875 194.996094 273.757812 195.039062 274.628906 C 195.53125 283.003906 197.378906 290.832031 199.707031 298.859375 C 199.835938 299.320312 199.96875 299.777344 200.101562 300.238281 L 200.34375 301.089844 C 198.3125 300.910156 196.441406 300.5625 194.484375 299.992188 L 193.632812 299.746094 C 191.140625 299.003906 188.699219 298.140625 186.257812 297.246094 L 185.175781 296.847656 C 183.277344 296.136719 181.460938 295.351562 179.660156 294.421875 C 178.886719 294.027344 178.105469 293.703125 177.292969 293.402344 C 176.1875 292.972656 175.21875 292.472656 174.207031 291.847656 C 173.507812 291.625 173.507812 291.625 172.929688 291.527344 L 172.929688 290.890625 L 172.113281 290.804688 C 170.875 290.542969 169.894531 290.046875 168.808594 289.425781 L 168.195312 289.085938 C 167.554688 288.726562 166.914062 288.367188 166.277344 288.003906 L 164.96875 287.273438 C 163.902344 286.675781 162.835938 286.078125 161.773438 285.476562 L 161.773438 284.835938 L 160.179688 284.519531 L 160.179688 283.882812 L 159.222656 283.882812 L 159.222656 283.246094 L 158.691406 283.144531 C 157.792969 282.878906 157.082031 282.46875 156.277344 281.988281 L 155.414062 281.484375 L 154.761719 281.011719 L 154.761719 280.375 L 153.804688 280.375 L 153.804688 279.738281 L 152.851562 279.738281 L 152.851562 279.101562 L 151.574219 278.78125 L 151.574219 278.144531 L 150.617188 278.144531 L 150.617188 277.507812 L 149.9375 277.269531 C 148.90625 276.820312 148.082031 276.257812 147.171875 275.597656 L 146.230469 274.917969 L 145.519531 274.320312 L 145.519531 273.683594 L 143.925781 273.046875 L 143.925781 272.410156 L 143.207031 272.171875 C 142.230469 271.726562 141.792969 271.277344 141.054688 270.496094 C 140.433594 269.949219 139.804688 269.40625 139.175781 268.867188 C 138.390625 268.164062 137.65625 267.421875 136.914062 266.675781 C 136.40625 266.175781 135.898438 265.675781 135.394531 265.179688 L 133.644531 263.449219 L 132.773438 262.589844 C 130.820312 260.65625 129.050781 258.636719 127.351562 256.476562 L 126.878906 255.890625 C 121.371094 249 116.289062 240.9375 114.28125 232.257812 C 114.261719 231.726562 114.261719 231.195312 114.28125 230.664062 " fill-opacity="1" fill-rule="nonzero"/><path fill="#fea70e" d="M 163.050781 60.183594 C 163.980469 60.601562 164.566406 61.0625 165.28125 61.777344 L 166.238281 62.097656 L 166.238281 62.734375 L 168.148438 63.371094 L 168.148438 64.007812 L 168.945312 64.1875 C 170.226562 64.714844 171 65.40625 171.996094 66.347656 C 172.605469 66.871094 173.167969 67.175781 173.886719 67.515625 C 174.445312 67.992188 174.445312 67.992188 174.84375 68.46875 L 174.84375 69.105469 L 175.359375 69.347656 C 177.089844 70.257812 178.285156 71.261719 179.527344 72.742188 C 180.507812 73.84375 181.558594 74.867188 182.613281 75.898438 C 184.304688 77.566406 185.867188 79.253906 187.328125 81.128906 C 187.898438 81.863281 187.898438 81.863281 188.5625 82.492188 C 189.21875 83.160156 189.6875 83.835938 190.183594 84.621094 C 190.476562 85.089844 190.78125 85.546875 191.097656 85.996094 L 191.738281 86.316406 C 192.058594 86.828125 192.058594 86.828125 192.414062 87.507812 C 193.078125 88.742188 193.785156 89.929688 194.527344 91.113281 C 195.519531 92.722656 196.484375 94.347656 197.414062 95.992188 C 197.535156 96.203125 197.652344 96.410156 197.773438 96.625 C 199.613281 99.898438 199.613281 99.898438 199.800781 101.429688 L 199.707031 103.203125 L 200.34375 103.523438 C 201.1875 105.246094 201.765625 107.089844 202.253906 108.9375 L 202.59375 109.996094 C 202.90625 111.21875 203.015625 112.375 203.121094 113.628906 C 203.183594 114.390625 203.183594 114.390625 203.550781 115.191406 C 204 116.328125 203.910156 117.28125 203.847656 118.5 L 203.53125 119.453125 L 204.167969 119.453125 L 204.167969 132.839844 L 203.53125 132.839844 L 203.847656 133.792969 C 204.242188 138.527344 202.746094 143.273438 201.617188 147.816406 L 200.980469 147.496094 C 200.601562 146.878906 200.601562 146.878906 200.34375 145.902344 C 200.382812 144.832031 200.507812 143.777344 200.660156 142.71875 L 198.75 143.035156 L 198.429688 142.398438 L 197.632812 142.121094 L 196.835938 141.761719 C 196.71875 141.339844 196.613281 140.914062 196.519531 140.484375 C 195.890625 140.121094 195.890625 140.121094 195.242188 139.847656 L 194.925781 139.210938 L 193.96875 138.894531 L 193.96875 138.253906 L 193.011719 138.253906 L 193.011719 137.617188 L 192.054688 137.617188 L 192.054688 136.980469 L 191.097656 136.980469 L 191.097656 136.34375 L 189.824219 136.34375 L 189.824219 135.707031 L 189.085938 135.46875 C 188.144531 135.027344 187.875 134.613281 187.273438 133.792969 L 186.316406 133.792969 L 186.316406 133.15625 L 185.363281 133.15625 L 185.363281 132.519531 L 183.449219 132.203125 L 183.449219 131.246094 L 181.855469 131.246094 L 181.855469 130.609375 L 180.898438 130.609375 L 180.898438 129.96875 L 179.625 129.96875 L 179.625 129.332031 L 178.667969 129.332031 L 178.667969 128.695312 L 177.710938 128.695312 L 177.710938 128.058594 L 176.796875 127.917969 C 175.800781 127.738281 175.800781 127.738281 175.160156 127.421875 L 175.160156 126.785156 L 173.566406 126.785156 L 173.566406 126.148438 L 172.613281 126.148438 L 172.292969 125.507812 L 171.335938 125.507812 L 171.335938 124.871094 L 170.441406 124.910156 L 169.425781 124.871094 L 168.46875 124.234375 L 168.46875 123.597656 L 166.554688 123.597656 L 166.554688 122.960938 L 165.28125 122.960938 L 165.28125 122.324219 L 164.644531 122.324219 L 164.324219 121.683594 L 162.410156 122.003906 L 162.609375 121.40625 L 162.730469 120.730469 L 162.09375 120.09375 C 162.195312 118.574219 162.953125 117.253906 163.605469 115.910156 L 164.308594 114.4375 C 164.671875 113.683594 165.035156 112.933594 165.40625 112.183594 C 169.746094 103.160156 171.273438 93.148438 170.644531 83.214844 C 170.453125 80.769531 170.261719 78.4375 169.425781 76.117188 C 169.316406 75.660156 169.214844 75.203125 169.125 74.742188 C 168.855469 73.46875 168.480469 72.261719 168.046875 71.03125 C 167.761719 70.171875 167.511719 69.382812 167.511719 68.46875 L 166.875 68.152344 L 166.238281 65.921875 L 165.597656 65.601562 C 165.265625 64.980469 164.945312 64.347656 164.644531 63.710938 C 164 62.316406 164 62.316406 163.050781 61.140625 Z M 163.050781 60.183594 " fill-opacity="1" fill-rule="nonzero"/><path fill="#fe8008" d="M 218.832031 122.960938 C 219.785156 123.277344 219.785156 123.277344 220.445312 123.855469 C 221.019531 124.503906 221.316406 125.0625 221.699219 125.828125 L 222.65625 126.464844 L 222.972656 127.421875 L 223.613281 127.738281 L 223.613281 128.695312 L 224.566406 129.015625 L 224.566406 129.96875 L 225.207031 129.96875 L 225.207031 130.925781 L 225.84375 130.925781 L 225.84375 131.882812 L 226.480469 131.882812 C 227 132.621094 227 132.621094 227.4375 133.476562 L 227.4375 134.433594 L 228.074219 134.433594 C 228.539062 135.273438 228.710938 135.671875 228.710938 136.664062 L 229.347656 136.664062 L 229.347656 137.9375 L 229.988281 137.9375 L 229.988281 139.210938 L 230.625 139.210938 C 231.597656 141.054688 232.371094 142.925781 233.101562 144.878906 C 233.433594 145.746094 233.785156 146.601562 234.148438 147.457031 C 236.953125 154.550781 237.710938 162.6875 237.695312 170.261719 L 237.695312 170.945312 C 237.667969 180.257812 236.257812 190.175781 231.886719 198.527344 C 231.585938 199.113281 231.304688 199.703125 231.035156 200.300781 C 230.066406 202.433594 229.066406 204.480469 227.808594 206.464844 C 227.390625 207.113281 227.390625 207.113281 227.117188 208.042969 L 226.480469 208.359375 L 226.160156 209.632812 L 225.523438 209.953125 C 225.316406 210.597656 225.316406 210.597656 225.207031 211.226562 L 224.566406 211.226562 L 224.25 212.183594 L 223.292969 211.863281 L 224.25 208.042969 L 223.929688 208.359375 L 223.292969 208.679688 L 223.292969 208.042969 L 221.699219 208.042969 L 221.378906 206.765625 L 220.625 206.6875 L 219.785156 206.449219 C 219.46875 205.871094 219.46875 205.871094 219.148438 205.171875 C 218.628906 204.734375 218.097656 204.308594 217.554688 203.898438 L 217.128906 203.453125 C 216.214844 202.574219 215.128906 201.929688 214.074219 201.230469 L 213.410156 200.710938 L 213.410156 200.074219 L 212.773438 200.074219 L 212.773438 199.4375 L 210.863281 198.800781 L 210.863281 198.164062 L 210.085938 197.902344 L 209.269531 197.527344 L 208.949219 196.570312 L 208.152344 196.25 L 207.355469 195.933594 L 207.035156 194.976562 L 206.480469 194.835938 C 205.277344 194.535156 204.496094 193.675781 203.589844 192.867188 L 203.210938 192.425781 L 203.210938 191.789062 L 201.617188 191.152344 L 201.617188 190.515625 L 200.980469 190.515625 C 200.570312 190.027344 200.570312 190.027344 200.144531 189.398438 L 199.710938 188.773438 L 199.386719 188.285156 C 200.261719 186.679688 201.230469 185.261719 202.355469 183.824219 C 210.78125 172.789062 217.863281 160.148438 220.304688 146.367188 C 220.449219 145.042969 220.457031 143.746094 220.445312 142.417969 L 220.441406 141.664062 C 220.433594 141.058594 220.429688 140.453125 220.425781 139.847656 L 221.0625 139.847656 L 221.0625 134.433594 L 220.425781 134.433594 L 220.742188 131.882812 L 220.105469 131.882812 L 220.425781 129.332031 L 219.785156 129.332031 L 220.105469 127.738281 L 219.46875 127.738281 L 219.785156 126.464844 L 219.148438 126.464844 Z M 218.832031 122.960938 " fill-opacity="1" fill-rule="nonzero"/><path fill="#fe6a06" d="M 161.773438 119.773438 L 163.050781 120.730469 L 162.730469 121.683594 L 164.324219 121.367188 L 164.644531 122.324219 L 165.28125 122.324219 L 165.28125 122.960938 L 166.554688 122.960938 L 166.554688 123.597656 L 168.46875 123.597656 L 168.46875 124.234375 L 171.335938 124.871094 L 171.335938 125.507812 L 173.566406 125.191406 L 172.613281 125.507812 L 172.613281 126.148438 L 173.566406 126.148438 L 173.566406 126.785156 L 175.160156 126.785156 L 175.160156 127.421875 L 177.710938 128.058594 L 177.710938 128.695312 L 178.667969 128.695312 L 178.667969 129.332031 L 179.625 129.332031 L 179.625 129.96875 L 180.898438 129.96875 L 180.898438 130.609375 L 181.855469 130.609375 L 181.855469 131.246094 L 183.449219 131.246094 L 183.449219 132.203125 L 185.363281 132.519531 L 185.363281 133.15625 L 186.316406 133.15625 L 186.316406 133.792969 L 187.59375 133.476562 L 187.992188 134.234375 C 188.480469 135.09375 188.480469 135.09375 189.246094 135.488281 L 189.824219 135.707031 L 189.824219 136.34375 L 192.691406 136.664062 L 192.054688 136.980469 L 192.054688 137.617188 L 193.011719 137.617188 L 193.011719 138.253906 L 193.96875 138.253906 L 193.96875 138.894531 L 195.242188 139.210938 L 195.242188 139.847656 L 196.019531 140.089844 L 196.835938 140.484375 L 197.15625 141.761719 C 198.246094 142.320312 199.429688 142.71875 200.660156 142.71875 L 200.640625 143.4375 L 200.621094 144.390625 L 200.601562 145.332031 C 200.597656 146.207031 200.597656 146.207031 201.003906 146.835938 C 201.300781 147.496094 201.300781 147.496094 201.238281 148.527344 C 200.949219 149.867188 200.535156 151.070312 200.023438 152.335938 L 199.726562 153.082031 C 198.109375 157.105469 196.425781 161.105469 194.164062 164.816406 C 193.644531 165.667969 193.164062 166.535156 192.691406 167.414062 L 192.226562 168.265625 C 191.871094 168.917969 191.523438 169.574219 191.179688 170.234375 L 190.601562 171.296875 L 190.082031 172.277344 L 189.503906 172.988281 C 188.640625 173.09375 188.640625 173.09375 187.910156 172.988281 L 187.910156 171.714844 C 187.816406 171.183594 187.710938 170.648438 187.59375 170.121094 L 187.273438 170.441406 C 186.0625 170.289062 185.121094 169.890625 184.046875 169.324219 C 183.203125 168.882812 182.441406 168.511719 181.535156 168.210938 L 181.535156 167.570312 L 181.019531 167.472656 C 180.0625 167.195312 179.230469 166.757812 178.347656 166.296875 L 178.347656 165.660156 L 177.472656 165.382812 C 176.652344 165.097656 175.921875 164.796875 175.160156 164.386719 L 175.160156 163.109375 L 173.886719 163.109375 C 173.707031 162.511719 173.707031 162.511719 173.566406 161.835938 L 173.886719 161.199219 L 172.929688 161.515625 L 172.613281 159.925781 L 171.972656 159.925781 L 171.972656 160.5625 C 171.21875 160.503906 171.21875 160.503906 170.378906 160.242188 C 170.15625 159.714844 169.945312 159.183594 169.742188 158.648438 C 169.113281 158.4375 169.113281 158.4375 168.46875 158.332031 L 167.832031 157.375 C 167.949219 156.679688 167.949219 156.679688 168.148438 156.101562 L 166.554688 155.78125 L 166.554688 155.144531 L 164.324219 155.144531 L 164.324219 152.914062 L 163.46875 153.132812 C 162.410156 153.234375 162.410156 153.234375 161.515625 152.855469 C 160.816406 152.277344 160.816406 152.277344 160.558594 151.578125 L 160.5 151 L 162.09375 151.320312 L 162.410156 150.683594 C 161.433594 150.496094 160.539062 150.363281 159.542969 150.382812 C 158.476562 150.363281 157.664062 150.105469 156.675781 149.726562 L 157.3125 149.410156 L 157.3125 148.769531 L 155.398438 148.453125 L 155.398438 147.816406 L 154.78125 147.714844 L 154.125 147.496094 L 153.804688 146.539062 L 152.851562 146.539062 L 152.851562 145.265625 L 150.9375 145.265625 L 150.9375 143.992188 L 150.300781 143.671875 C 149.761719 143.148438 149.230469 142.617188 148.707031 142.078125 L 147.75 143.355469 L 146.792969 143.035156 C 147.117188 141.277344 147.539062 140.160156 148.683594 138.789062 L 149.183594 138.214844 C 149.535156 137.796875 149.882812 137.375 150.234375 136.949219 L 150.757812 136.316406 C 154.917969 131.207031 158.472656 125.460938 161.773438 119.773438 " fill-opacity="1" fill-rule="nonzero"/><path fill="#fe6905" d="M 248.472656 167.570312 C 249.070312 167.8125 249.070312 167.8125 249.75 168.210938 C 250.066406 168.765625 250.066406 168.765625 250.386719 169.484375 L 251.023438 170.441406 C 251.519531 171.1875 251.910156 171.871094 252.300781 172.671875 L 252.6875 173.4375 L 253.097656 174.242188 L 253.503906 175.050781 C 253.882812 175.839844 254.207031 176.636719 254.53125 177.449219 C 254.738281 177.863281 254.949219 178.277344 255.167969 178.683594 C 255.753906 179.835938 256.097656 180.984375 256.441406 182.230469 C 256.757812 182.871094 257.074219 183.507812 257.398438 184.140625 C 257.625 184.777344 257.835938 185.414062 258.035156 186.054688 L 258.253906 186.675781 C 259.277344 189.613281 259.964844 192.519531 260.269531 195.613281 L 260.585938 195.933594 C 260.710938 196.796875 260.8125 197.65625 260.90625 198.519531 L 260.988281 199.304688 C 262.09375 209.894531 261.296875 220.050781 257.398438 230.027344 L 256.761719 230.027344 L 256.691406 230.964844 C 256.472656 232.515625 255.746094 233.757812 254.988281 235.105469 L 254.578125 235.859375 C 254.246094 236.464844 253.910156 237.070312 253.574219 237.675781 L 252.617188 237.675781 L 252.605469 237.011719 C 252.558594 236.144531 252.492188 235.339844 252.300781 234.488281 C 251.542969 233.785156 251.542969 233.785156 250.707031 233.535156 L 250.386719 234.488281 L 249.75 232.898438 L 248.792969 232.898438 L 248.15625 232.578125 L 248.15625 231.941406 L 247.472656 231.882812 C 246.285156 231.542969 245.574219 230.851562 244.707031 230.007812 L 244.222656 229.550781 C 243.832031 229.183594 243.441406 228.808594 243.054688 228.433594 L 242.738281 229.710938 L 242.417969 228.753906 C 241.757812 228.453125 241.757812 228.453125 240.984375 228.257812 C 240.195312 228.035156 240.195312 228.035156 239.550781 227.796875 L 239.230469 227.160156 C 238.707031 226.929688 238.175781 226.71875 237.636719 226.523438 L 237.957031 225.886719 L 236.363281 225.25 L 236.363281 224.613281 C 235.699219 224.222656 235.699219 224.222656 234.769531 224.292969 C 234.230469 224.492188 233.699219 224.703125 233.175781 224.929688 C 233.660156 223.898438 234.246094 222.984375 234.886719 222.042969 C 235.378906 221.304688 235.871094 220.570312 236.363281 219.832031 L 236.792969 219.183594 C 241.921875 211.457031 245.550781 203.3125 247.835938 194.339844 L 248.125 193.238281 C 249.988281 185.707031 249.898438 177.769531 248.792969 170.121094 C 248.683594 169.273438 248.578125 168.421875 248.472656 167.570312 " fill-opacity="1" fill-rule="nonzero"/><path fill="#fd4602" d="M 199.066406 188.285156 L 199.707031 188.285156 C 200.382812 188.863281 200.382812 188.863281 200.980469 189.558594 L 200.980469 190.515625 L 201.617188 190.515625 L 201.617188 191.152344 L 203.210938 191.789062 L 203.210938 192.425781 L 204.167969 192.746094 L 204.167969 193.382812 L 204.707031 193.640625 C 206.128906 194.371094 207.183594 195.125 208.3125 196.25 C 208.984375 196.753906 209.664062 197.246094 210.347656 197.726562 L 210.863281 198.164062 L 210.863281 198.800781 L 211.460938 198.941406 C 212.136719 199.117188 212.136719 199.117188 212.773438 199.4375 L 212.773438 200.074219 L 213.410156 200.074219 L 213.410156 200.710938 L 213.960938 200.976562 C 215.886719 201.96875 217.746094 203.195312 219.148438 204.855469 L 219.46875 205.730469 L 219.785156 206.449219 C 220.597656 206.734375 220.597656 206.734375 221.378906 206.765625 L 221.699219 208.042969 L 222.476562 208.023438 L 223.292969 208.042969 L 223.613281 208.359375 L 223.929688 207.402344 L 224.566406 208.042969 C 224.492188 208.707031 224.492188 208.707031 224.289062 209.476562 C 224.015625 210.5 224.015625 210.5 223.929688 211.546875 L 224.25 212.183594 L 223.929688 213.140625 L 223.292969 213.140625 L 223.292969 214.097656 C 222.863281 214.566406 222.863281 214.566406 222.335938 215.050781 C 222.0625 215.414062 221.796875 215.777344 221.542969 216.152344 L 221.085938 216.804688 L 220.605469 217.5 C 219.234375 219.449219 217.863281 221.394531 216.460938 223.316406 L 215.992188 223.972656 C 215.292969 224.917969 214.84375 225.488281 213.777344 226.027344 C 213.550781 226.085938 213.328125 226.144531 213.09375 226.203125 L 212.773438 225.25 L 212.457031 226.203125 C 211.839844 226.542969 211.839844 226.542969 211.179688 226.84375 L 210.542969 227.480469 L 209.585938 227.480469 L 209.367188 226.882812 L 208.949219 226.203125 C 208.140625 225.796875 208.140625 225.796875 207.355469 225.566406 L 207.355469 224.929688 L 206.339844 224.851562 C 205.125 224.613281 205.125 224.613281 204.246094 223.972656 L 203.53125 223.335938 L 202.574219 223.019531 C 202.355469 222.359375 202.355469 222.359375 202.253906 221.742188 L 201.300781 221.742188 L 201.300781 220.789062 L 200.660156 221.742188 L 198.75 220.789062 L 198.75 220.148438 L 197.851562 220.03125 C 196.835938 219.832031 196.835938 219.832031 195.878906 219.195312 L 195.878906 218.558594 L 195.34375 218.425781 C 193.246094 217.835938 192.019531 216.851562 190.460938 215.371094 C 189.863281 214.882812 189.265625 214.402344 188.660156 213.921875 C 188.230469 213.457031 188.230469 213.457031 188.070312 212.789062 L 187.910156 212.183594 C 186.980469 211.785156 186.980469 211.785156 186 211.546875 L 185.363281 211.226562 L 185.363281 210.589844 L 186.316406 210.589844 L 186.636719 208.679688 L 185.363281 208.996094 L 186 208.679688 L 185.917969 207.722656 C 185.921875 206.230469 186.539062 205.167969 187.273438 203.898438 C 187.824219 203.074219 188.417969 202.292969 189.027344 201.507812 L 190.050781 200.167969 L 190.578125 199.484375 C 191.410156 198.390625 192.230469 197.292969 193.050781 196.191406 C 194.503906 194.253906 195.972656 192.328125 197.457031 190.410156 C 197.863281 189.886719 198.257812 189.351562 198.636719 188.808594 Z M 199.066406 188.285156 " fill-opacity="1" fill-rule="nonzero"/><path fill="#fe8109" d="M 161.773438 119.773438 L 163.050781 120.730469 L 162.730469 121.683594 L 164.324219 121.367188 L 164.644531 122.324219 L 165.28125 122.324219 L 165.28125 122.960938 L 166.554688 122.960938 L 166.554688 123.597656 L 168.46875 123.597656 L 168.46875 124.234375 L 171.335938 124.871094 L 171.335938 125.507812 L 173.566406 125.191406 L 172.613281 125.507812 L 172.613281 126.148438 L 173.566406 126.148438 L 173.566406 126.785156 L 175.160156 126.785156 L 175.160156 127.421875 L 177.710938 128.058594 L 177.710938 128.695312 L 178.667969 128.695312 L 178.667969 129.332031 L 179.625 129.332031 L 179.625 129.96875 L 180.898438 129.96875 L 180.898438 130.609375 L 181.855469 130.609375 L 181.855469 131.246094 L 183.449219 131.246094 L 183.449219 132.203125 L 185.363281 132.519531 L 185.363281 133.15625 L 186.316406 133.15625 L 186.316406 133.792969 L 187.59375 133.476562 L 187.992188 134.234375 C 188.480469 135.09375 188.480469 135.09375 189.246094 135.488281 L 189.824219 135.707031 L 189.824219 136.34375 L 192.691406 136.664062 L 192.054688 136.980469 L 192.054688 137.617188 L 193.011719 137.617188 L 193.011719 138.253906 L 193.96875 138.253906 L 193.96875 138.894531 L 195.242188 139.210938 L 195.242188 139.847656 L 196.019531 140.089844 L 196.835938 140.484375 L 197.15625 141.761719 C 198.246094 142.320312 199.429688 142.71875 200.660156 142.71875 L 200.640625 143.4375 L 200.621094 144.390625 L 200.601562 145.332031 C 200.597656 146.207031 200.597656 146.207031 201.003906 146.835938 C 201.300781 147.496094 201.300781 147.496094 201.238281 148.527344 C 200.949219 149.867188 200.535156 151.070312 200.023438 152.335938 L 199.730469 153.078125 C 198.949219 155.027344 198.113281 156.953125 197.253906 158.867188 L 196.898438 159.664062 C 196.214844 161.175781 195.449219 162.640625 194.605469 164.066406 L 193.96875 163.429688 L 194.234375 162.832031 C 195.03125 160.976562 195.433594 159.390625 195.5625 157.375 L 194.925781 157.375 L 194.605469 156.738281 L 193.808594 156.457031 L 193.011719 156.101562 C 192.753906 155.421875 192.753906 155.421875 192.691406 154.824219 L 192.054688 154.824219 L 192.054688 154.1875 L 190.78125 153.871094 L 190.78125 153.234375 L 189.503906 153.234375 L 189.1875 151.957031 L 187.273438 151.640625 L 187.273438 151 L 186.636719 151 L 186.636719 150.363281 L 186.058594 150.246094 C 185.363281 150.046875 185.363281 150.046875 184.40625 149.410156 L 184.40625 148.769531 L 183.449219 148.769531 L 183.449219 148.132812 L 182.8125 148.132812 L 182.8125 147.496094 L 180.582031 147.179688 L 180.582031 145.585938 L 178.347656 145.265625 L 178.03125 143.671875 L 177.074219 143.671875 C 176.378906 142.914062 176.378906 142.914062 175.800781 142.078125 L 175.800781 141.441406 L 174.523438 141.441406 C 173.964844 141.003906 173.964844 141.003906 173.566406 140.484375 L 173.566406 139.847656 L 171.972656 139.53125 L 171.65625 138.574219 L 170.957031 138.433594 L 168.46875 137.9375 L 168.148438 136.34375 L 167.09375 136.222656 C 165.917969 136.023438 165.917969 136.023438 164.960938 135.386719 L 164.960938 134.75 L 164.414062 134.632812 L 163.707031 134.472656 L 163 134.316406 L 162.410156 134.113281 L 162.09375 133.476562 L 160.996094 133.355469 L 159.863281 133.15625 C 159.484375 132.519531 159.484375 132.519531 159.222656 131.882812 C 158.632812 131.5625 158.632812 131.5625 157.949219 131.5625 C 157.242188 131.769531 157.242188 131.769531 156.675781 132.203125 L 156.355469 133.15625 C 154.246094 133.476562 154.246094 133.476562 153.167969 133.476562 C 153.65625 132.441406 154.242188 131.519531 154.882812 130.570312 L 155.53125 129.613281 L 156.214844 128.597656 C 158.160156 125.703125 160.035156 122.792969 161.773438 119.773438 " fill-opacity="1" fill-rule="nonzero"/><path fill="#fea70e" d="M 218.832031 122.960938 C 219.785156 123.277344 219.785156 123.277344 220.445312 123.855469 C 221.019531 124.503906 221.316406 125.0625 221.699219 125.828125 L 222.65625 126.464844 L 222.972656 127.421875 L 223.613281 127.738281 L 223.613281 128.695312 L 224.566406 129.015625 L 224.566406 129.96875 L 225.207031 129.96875 L 225.207031 130.925781 L 225.84375 130.925781 L 225.84375 131.882812 L 226.480469 131.882812 C 227 132.621094 227 132.621094 227.4375 133.476562 L 227.4375 134.433594 L 228.074219 134.433594 C 228.539062 135.273438 228.710938 135.671875 228.710938 136.664062 L 229.347656 136.664062 L 229.347656 137.9375 L 229.988281 137.9375 L 229.988281 139.210938 L 230.625 139.210938 C 231.597656 141.054688 232.371094 142.925781 233.101562 144.878906 C 233.433594 145.746094 233.785156 146.601562 234.148438 147.457031 C 236.011719 152.164062 236.65625 157.167969 237.316406 162.15625 L 237.421875 162.9375 C 237.6875 165.195312 237.683594 167.457031 237.679688 169.726562 C 237.675781 170.398438 237.679688 171.066406 237.679688 171.734375 C 237.679688 174.292969 237.582031 176.816406 237.316406 179.363281 L 236.363281 179.679688 C 236.128906 180.324219 236.128906 180.324219 236.042969 180.957031 L 235.984375 180.40625 C 235.761719 178.34375 235.515625 176.292969 235.085938 174.265625 L 234.449219 174.265625 L 234.449219 173.308594 L 233.53125 173.226562 L 232.535156 172.988281 C 232.15625 172.390625 232.15625 172.390625 231.898438 171.714844 C 231.296875 171.035156 230.757812 170.632812 229.988281 170.121094 L 229.988281 169.484375 L 229.371094 169.382812 L 228.710938 169.164062 L 228.394531 168.210938 L 227.4375 168.210938 L 226.800781 167.253906 C 226.273438 167.019531 225.742188 166.792969 225.207031 166.582031 C 224.273438 166.167969 223.441406 165.613281 222.589844 165.050781 C 221.980469 164.652344 221.980469 164.652344 221.0625 164.386719 L 221.0625 163.75 L 220.105469 163.75 L 220.105469 163.109375 L 219.089844 163.171875 C 217.875 163.109375 217.875 163.109375 216.9375 162.632812 L 216.28125 162.15625 L 215.644531 163.109375 C 215.820312 161.179688 216.425781 159.597656 217.15625 157.8125 C 219.101562 152.90625 220.503906 147.722656 220.445312 142.417969 L 220.441406 141.664062 C 220.433594 141.058594 220.429688 140.453125 220.425781 139.847656 L 221.0625 139.847656 L 221.0625 134.433594 L 220.425781 134.433594 L 220.742188 131.882812 L 220.105469 131.882812 L 220.425781 129.332031 L 219.785156 129.332031 L 220.105469 127.738281 L 219.46875 127.738281 L 219.785156 126.464844 L 219.148438 126.464844 Z M 218.832031 122.960938 " fill-opacity="1" fill-rule="nonzero"/><path fill="#fe6a06" d="M 207.035156 177.132812 L 207.355469 177.769531 C 207.265625 178.410156 207.160156 179.046875 207.035156 179.679688 L 208.628906 179.363281 L 208.628906 180 L 211.179688 180 L 211.5 180.957031 L 212.457031 181.273438 L 212.457031 181.910156 L 214.050781 181.910156 L 214.367188 182.867188 L 215.003906 182.867188 L 215.324219 184.140625 L 215.960938 184.140625 L 216.597656 184.78125 L 216.597656 185.734375 L 217.554688 185.417969 C 218.414062 185.835938 218.414062 185.835938 219.148438 186.371094 L 219.148438 187.011719 L 219.785156 187.011719 L 219.785156 187.648438 L 221.0625 187.964844 L 221.0625 188.601562 C 221.90625 188.945312 222.746094 189.269531 223.613281 189.558594 L 223.613281 190.515625 L 224.628906 190.734375 C 225.601562 191.011719 225.957031 191.246094 226.78125 191.929688 L 227.4375 192.746094 L 227.4375 193.703125 C 228.277344 194.152344 229.054688 194.457031 229.988281 194.65625 L 230.304688 194.019531 L 230.941406 194.339844 C 230.847656 194.871094 230.738281 195.402344 230.625 195.933594 L 230.304688 196.25 C 230.285156 196.734375 230.277344 197.21875 230.285156 197.707031 L 230.292969 198.503906 L 230.304688 199.117188 L 229.667969 199.117188 L 229.988281 200.074219 L 230.941406 199.757812 C 230.753906 201.246094 230.109375 202.425781 229.390625 203.71875 L 228.714844 204.953125 L 228.382812 205.550781 C 228.089844 206.097656 227.820312 206.65625 227.554688 207.214844 L 227.117188 208.042969 L 226.480469 208.359375 L 226.160156 209.632812 L 225.523438 209.953125 C 225.316406 210.597656 225.316406 210.597656 225.207031 211.226562 L 224.566406 211.226562 L 224.25 212.183594 L 223.292969 211.863281 L 224.25 208.042969 L 223.929688 208.359375 L 223.292969 208.679688 L 223.292969 208.042969 L 221.699219 208.042969 L 221.378906 206.765625 L 220.625 206.6875 L 219.785156 206.449219 C 219.46875 205.871094 219.46875 205.871094 219.148438 205.171875 C 218.628906 204.734375 218.097656 204.308594 217.554688 203.898438 L 217.128906 203.453125 C 216.214844 202.574219 215.128906 201.929688 214.074219 201.230469 L 213.410156 200.710938 L 213.410156 200.074219 L 212.773438 200.074219 L 212.773438 199.4375 L 210.863281 198.800781 L 210.863281 198.164062 L 210.085938 197.902344 L 209.269531 197.527344 L 208.949219 196.570312 L 208.152344 196.25 L 207.355469 195.933594 L 207.035156 194.976562 L 206.480469 194.835938 C 205.277344 194.535156 204.496094 193.675781 203.589844 192.867188 L 203.210938 192.425781 L 203.210938 191.789062 L 201.617188 191.152344 L 201.617188 190.515625 L 200.980469 190.515625 C 200.570312 190.027344 200.570312 190.027344 200.144531 189.398438 L 199.710938 188.773438 L 199.386719 188.285156 C 200.296875 186.605469 201.328125 185.113281 202.496094 183.605469 C 204.09375 181.507812 205.609375 179.347656 207.035156 177.132812 " fill-opacity="1" fill-rule="nonzero"/><path fill="#fdc216" d="M 163.050781 60.183594 C 163.980469 60.601562 164.566406 61.0625 165.28125 61.777344 L 166.238281 62.097656 L 166.238281 62.734375 L 168.148438 63.371094 L 168.148438 64.007812 L 168.945312 64.1875 C 170.226562 64.714844 171 65.40625 171.996094 66.347656 C 172.605469 66.871094 173.167969 67.175781 173.886719 67.515625 C 174.445312 67.992188 174.445312 67.992188 174.84375 68.46875 L 174.84375 69.105469 L 175.359375 69.347656 C 177.089844 70.257812 178.285156 71.261719 179.527344 72.742188 C 180.507812 73.84375 181.558594 74.867188 182.613281 75.898438 C 184.304688 77.566406 185.867188 79.253906 187.328125 81.128906 C 187.898438 81.863281 187.898438 81.863281 188.5625 82.492188 C 189.21875 83.160156 189.6875 83.835938 190.183594 84.621094 C 190.476562 85.089844 190.78125 85.546875 191.097656 85.996094 L 191.738281 86.316406 C 192.058594 86.828125 192.058594 86.828125 192.414062 87.507812 C 193.078125 88.742188 193.785156 89.929688 194.527344 91.113281 C 195.519531 92.722656 196.484375 94.347656 197.414062 95.992188 C 197.535156 96.203125 197.652344 96.410156 197.773438 96.625 C 199.707031 100.0625 199.707031 100.0625 199.707031 101.609375 C 199.140625 101.558594 199.140625 101.558594 198.429688 101.292969 C 197.851562 100.527344 197.851562 100.527344 197.296875 99.578125 C 196.460938 98.035156 196.460938 98.035156 195.242188 96.832031 C 194.222656 96.714844 194.222656 96.714844 193.113281 96.769531 L 191.972656 96.796875 L 191.097656 96.832031 L 190.78125 96.191406 L 190.183594 96.09375 L 189.503906 95.875 L 189.066406 95.078125 L 188.550781 94.28125 C 187.5625 93.996094 187.5625 93.996094 186.636719 93.960938 L 186.636719 93.324219 L 185.699219 93.066406 L 184.722656 92.6875 L 184.40625 91.730469 C 183.878906 91.511719 183.347656 91.296875 182.8125 91.09375 C 182.234375 90.617188 182.234375 90.617188 181.855469 90.136719 L 181.855469 89.5 L 180.9375 89.261719 L 179.941406 88.863281 C 179.585938 88.207031 179.585938 88.207031 179.304688 87.589844 C 178.652344 87.332031 178.652344 87.332031 178.03125 87.269531 L 178.03125 86.632812 L 175.800781 86.316406 L 175.800781 85.675781 L 174.542969 85.558594 C 173.839844 85.492188 173.839844 85.492188 173.25 85.359375 L 172.929688 84.722656 L 172.292969 84.722656 L 171.972656 87.90625 L 171.335938 87.90625 L 171.335938 90.136719 L 171.019531 90.136719 L 170.96875 89.289062 C 170.910156 88.226562 170.84375 87.167969 170.78125 86.109375 C 170.753906 85.65625 170.726562 85.199219 170.699219 84.746094 C 170.507812 81.351562 170.226562 78.074219 169.105469 74.84375 C 168.863281 73.867188 168.625 72.890625 168.398438 71.914062 C 168.1875 71.035156 168.1875 71.035156 167.800781 70.34375 C 167.511719 69.746094 167.511719 69.746094 167.511719 68.46875 L 166.875 68.152344 L 166.238281 65.921875 L 165.597656 65.601562 C 165.265625 64.980469 164.945312 64.347656 164.644531 63.710938 C 164 62.316406 164 62.316406 163.050781 61.140625 Z M 163.050781 60.183594 " fill-opacity="1" fill-rule="nonzero"/><path fill="#fe8109" d="M 248.472656 167.570312 C 249.070312 167.8125 249.070312 167.8125 249.75 168.210938 C 250.066406 168.765625 250.066406 168.765625 250.386719 169.484375 L 251.023438 170.441406 C 251.519531 171.1875 251.910156 171.871094 252.300781 172.671875 L 252.6875 173.4375 L 253.097656 174.242188 L 253.503906 175.050781 C 253.882812 175.839844 254.207031 176.636719 254.53125 177.449219 C 254.738281 177.863281 254.949219 178.277344 255.167969 178.683594 C 255.753906 179.835938 256.097656 180.984375 256.441406 182.230469 C 256.757812 182.871094 257.074219 183.507812 257.398438 184.140625 C 257.625 184.777344 257.835938 185.414062 258.035156 186.054688 L 258.253906 186.675781 C 259.277344 189.613281 259.964844 192.519531 260.269531 195.613281 L 260.585938 195.933594 C 260.710938 196.796875 260.8125 197.65625 260.90625 198.519531 L 260.988281 199.296875 C 261.238281 201.675781 261.410156 204.058594 261.542969 206.449219 L 260.269531 206.128906 L 260.15625 205.550781 C 259.988281 204.6875 259.820312 203.824219 259.648438 202.960938 L 259.472656 202.050781 L 259.304688 201.179688 L 259.144531 200.378906 L 258.992188 199.757812 L 258.675781 199.4375 L 258.355469 200.074219 L 257.398438 200.074219 L 257.398438 199.117188 L 256.761719 199.117188 L 256.761719 200.074219 L 254.53125 199.4375 L 255.167969 199.117188 L 255.167969 198.480469 L 252.300781 198.164062 L 252.300781 197.527344 L 249.75 197.207031 L 249.75 196.570312 L 248.472656 196.570312 L 247.835938 195.933594 C 247.800781 194.535156 248.128906 193.125 248.453125 191.769531 C 250.042969 184.726562 249.820312 177.234375 248.792969 170.121094 C 248.683594 169.273438 248.578125 168.421875 248.472656 167.570312 " fill-opacity="1" fill-rule="nonzero"/><path fill="#fdc41e" d="M 218.832031 122.960938 C 219.785156 123.277344 219.785156 123.277344 220.445312 123.855469 C 221.019531 124.503906 221.316406 125.0625 221.699219 125.828125 L 222.65625 126.464844 L 222.972656 127.421875 L 223.613281 127.738281 L 223.613281 128.695312 L 224.566406 129.015625 L 224.566406 129.96875 L 225.207031 129.96875 L 225.207031 130.925781 L 225.84375 130.925781 L 225.84375 131.882812 L 226.480469 131.882812 C 227 132.621094 227 132.621094 227.4375 133.476562 L 227.4375 134.433594 L 228.074219 134.433594 C 228.539062 135.273438 228.710938 135.671875 228.710938 136.664062 L 229.347656 136.664062 L 229.347656 137.9375 L 229.988281 137.9375 L 229.988281 139.210938 L 230.625 139.210938 C 231.597656 141.054688 232.371094 142.925781 233.101562 144.878906 C 233.433594 145.746094 233.785156 146.601562 234.148438 147.457031 C 235.109375 149.839844 236.042969 152.566406 236.042969 155.144531 L 235.40625 155.144531 L 235.40625 155.78125 L 234.769531 155.78125 L 234.660156 155.152344 C 234.363281 153.496094 233.960938 152.183594 233.175781 150.683594 L 233.175781 149.410156 L 232.554688 149.289062 L 231.898438 149.089844 L 231.582031 148.453125 L 230.941406 148.453125 L 230.941406 147.816406 L 231.582031 147.816406 L 231.582031 147.179688 C 230.65625 146.960938 230.65625 146.960938 229.667969 146.859375 L 229.03125 147.496094 L 227.753906 147.496094 L 227.753906 146.859375 L 226.800781 146.859375 L 226.800781 146.222656 L 225.84375 146.222656 L 225.523438 144.628906 L 223.929688 144.628906 L 223.929688 143.671875 L 222.875 143.691406 C 221.699219 143.671875 221.699219 143.671875 220.742188 143.355469 L 220.425781 139.847656 L 221.0625 139.847656 L 221.0625 134.433594 L 220.425781 134.433594 L 220.742188 131.882812 L 220.105469 131.882812 L 220.425781 129.332031 L 219.785156 129.332031 L 220.105469 127.738281 L 219.46875 127.738281 L 219.785156 126.464844 L 219.148438 126.464844 Z M 218.832031 122.960938 " fill-opacity="1" fill-rule="nonzero"/><path fill="#fd4402" d="M 236.679688 219.511719 C 237.019531 220.109375 237.019531 220.109375 237.316406 220.789062 L 237 221.425781 L 237.640625 221.4375 C 238.511719 221.484375 239.332031 221.5625 240.1875 221.742188 C 241.082031 222.460938 241.082031 222.460938 241.78125 223.335938 L 242.65625 224.195312 C 243.375 224.929688 243.375 224.929688 243.691406 225.566406 L 244.648438 225.886719 L 244.648438 226.523438 L 246.5625 226.84375 L 246.5625 227.796875 L 248.15625 227.480469 L 248.472656 228.433594 L 249.230469 228.515625 L 250.066406 228.753906 C 250.484375 229.410156 250.484375 229.410156 250.707031 230.027344 L 252.617188 229.710938 L 252.617188 230.347656 L 253.234375 230.585938 L 253.894531 230.984375 C 254.132812 231.660156 254.132812 231.660156 254.210938 232.257812 L 253.574219 232.257812 L 253.253906 233.535156 L 254.210938 233.851562 L 253.253906 235.445312 L 253.894531 235.445312 L 253.894531 234.808594 L 254.847656 234.808594 C 254.421875 235.953125 253.90625 236.960938 253.253906 237.996094 L 252.617188 237.359375 C 252.542969 236.703125 252.542969 236.703125 252.519531 235.945312 C 252.472656 235.179688 252.472656 235.179688 252.300781 234.488281 C 251.535156 233.808594 251.535156 233.808594 250.707031 233.535156 L 250.386719 234.488281 L 249.75 232.898438 L 248.792969 232.898438 L 248.15625 232.578125 L 248.15625 231.941406 C 247.816406 231.910156 247.816406 231.910156 247.472656 231.882812 C 246.285156 231.542969 245.574219 230.851562 244.707031 230.007812 L 244.222656 229.550781 C 243.832031 229.183594 243.441406 228.808594 243.054688 228.433594 L 242.738281 229.710938 L 242.417969 228.753906 C 241.757812 228.453125 241.757812 228.453125 240.984375 228.257812 C 240.195312 228.035156 240.195312 228.035156 239.550781 227.796875 L 239.230469 227.160156 C 238.707031 226.929688 238.175781 226.71875 237.636719 226.523438 L 237.957031 225.886719 L 236.363281 225.25 L 236.363281 224.613281 C 235.699219 224.222656 235.699219 224.222656 234.769531 224.292969 C 234.230469 224.492188 233.699219 224.703125 233.175781 224.929688 C 233.710938 223.773438 234.394531 222.742188 235.105469 221.683594 C 235.332031 221.34375 235.5625 221.003906 235.796875 220.65625 C 236.363281 219.832031 236.363281 219.832031 236.679688 219.511719 " fill-opacity="1" fill-rule="nonzero"/><path fill="#e70001" d="M 203.53125 271.136719 L 203.847656 271.136719 C 203.859375 272.53125 203.863281 273.921875 203.871094 275.316406 L 203.878906 276.511719 L 203.878906 277.671875 L 203.886719 278.730469 C 203.847656 279.734375 203.703125 280.667969 203.53125 281.652344 C 203.515625 282.394531 203.515625 283.136719 203.53125 283.882812 L 204.167969 282.605469 C 204.667969 282.984375 204.667969 282.984375 205.125 283.5625 C 205.023438 284.417969 205.023438 284.417969 204.804688 285.15625 L 204.488281 284.519531 L 203.847656 284.519531 L 204.167969 287.386719 L 205.441406 286.75 C 205.066406 287.824219 204.71875 288.546875 203.847656 289.296875 L 203.53125 288.980469 C 202.910156 285.890625 202.792969 282.84375 202.8125 279.699219 L 202.804688 278.476562 C 202.8125 275.964844 203.027344 273.59375 203.53125 271.136719 " fill-opacity="1" fill-rule="nonzero"/><path fill="#fd2502" d="M 186.636719 204.855469 L 186.957031 205.492188 L 186.316406 206.765625 C 186.195312 207.402344 186.089844 208.039062 186 208.679688 L 185.042969 208.996094 L 184.40625 209.953125 L 184.085938 209.316406 C 184.691406 207.605469 185.546875 206.296875 186.636719 204.855469 " fill-opacity="1" fill-rule="nonzero"/><path fill="#fea80f" d="M 200.34375 147.816406 L 201.300781 147.816406 L 200.660156 150.683594 L 200.023438 150.363281 Z M 200.34375 147.816406 " fill-opacity="1" fill-rule="nonzero"/><path fill="#f8da81" d="M 163.050781 60.183594 C 163.648438 60.445312 163.648438 60.445312 164.324219 60.820312 L 164.960938 61.777344 L 164.324219 61.777344 L 164.003906 62.414062 C 163.527344 61.839844 163.527344 61.839844 163.050781 61.140625 Z M 163.050781 60.183594 " fill-opacity="1" fill-rule="nonzero"/><path fill="#fd1502" d="M 169.742188 272.730469 C 170.671875 273.386719 171.257812 273.839844 171.753906 274.878906 L 171.972656 275.597656 C 171.046875 274.9375 170.457031 274.484375 169.960938 273.445312 Z M 169.742188 272.730469 " fill-opacity="1" fill-rule="nonzero"/></svg>